<?xml version="1.0" standalone="no"?>
<!DOCTYPE svg PUBLIC "-//W3C//DTD SVG 20010904//EN"
 "http://www.w3.org/TR/2001/REC-SVG-20010904/DTD/svg10.dtd">
<svg version="1.0" xmlns="http://www.w3.org/2000/svg"
 width="499.000000pt" height="499.000000pt" viewBox="0 0 499.000000 499.000000"
 preserveAspectRatio="xMidYMid meet">
<metadata>
Created by potrace 1.16, written by Peter Selinger 2001-2019
</metadata>
<g transform="translate(0.000000,499.000000) scale(0.100000,-0.100000)"
fill="#000000" stroke="none">
<path d="M2438 4188 c-30 -51 -73 -124 -95 -163 -22 -38 -126 -219 -232 -402
l-191 -331 201 -349 c110 -191 207 -360 215 -375 l15 -28 -89 0 -89 0 -213
368 c-117 202 -215 370 -219 375 -4 4 -230 6 -503 5 l-496 -3 95 -165 c52 -91
172 -298 265 -460 94 -162 181 -312 194 -333 l24 -37 1175 0 1175 0 16 25 c9
14 139 238 289 498 l272 472 -496 3 c-429 2 -497 0 -507 -13 -6 -8 -104 -177
-219 -375 l-208 -360 -88 0 c-49 0 -89 2 -89 3 0 2 97 171 215 376 l215 372
-281 487 c-155 268 -285 491 -289 495 -4 5 -32 -33 -62 -85z m215 -660 l137
-237 -144 -248 c-78 -136 -147 -247 -152 -247 -5 1 -73 113 -152 249 l-142
247 128 222 c71 121 137 236 146 255 21 40 2 66 179 -241z m-927 -700 c70
-123 136 -238 147 -255 l19 -33 -220 0 -220 0 -142 248 c-79 136 -145 250
-147 255 -2 4 95 7 215 7 l219 0 129 -222z m2087 190 c-11 -18 -77 -133 -147
-255 l-128 -223 -220 0 c-120 0 -217 3 -215 8 2 4 68 118 147 255 l142 247
220 0 220 0 -19 -32z"/>
<path d="M1444 2074 c3 -8 88 -158 189 -332 101 -174 277 -480 392 -680 l209
-362 270 2 270 3 68 115 67 115 -264 3 -264 2 -19 28 c-25 36 -189 322 -198
345 -6 16 21 17 474 17 l480 0 66 113 c36 63 66 117 66 120 0 4 -279 7 -619 7
l-619 0 -76 132 c-42 72 -76 135 -76 139 0 5 352 10 781 11 l781 3 64 110 c35
61 64 113 64 118 0 4 -475 7 -1056 7 -952 0 -1056 -2 -1050 -16z"/>
</g>
</svg>
